# xmcd
#
# Track frame offsets:
#	150
#	20570
#	42405
#	57205
#	70830
#	90490
#	107107
#	131945
#	143302
#	164590
#
# Disc length: 2442 seconds
#
# Revision: 1
# Processed by: cddbd v1.5PL3 Copyright (c) Steve Scherf et al.
# Submitted via: CDex 1.50Beta5
#
DISCID=8809880a
DTITLE=斎藤誠 - Change It
DYEAR=1987
DGENRE=Rock
TTITLE0=I Sing My Song FOR YOU
TTITLE1=Pretty Baby,Kiss Me Baby
TTITLE2=Paris Style
TTITLE3=Change It
TTITLE4=Down,Down,Down
TTITLE5=TIME(That's Ny Greatest Taboo)
TTITLE6=I'm Just An April Fool
TTITLE7=B.L.T.(Breakfast Story)
TTITLE8=Nanika Ga Kanarazu
TTITLE9=He Is A Demo.Tape Songwriter
EXTD=
EXTT0=
EXTT1=
EXTT2=
EXTT3=
EXTT4=
EXTT5=
EXTT6=
EXTT7=
EXTT8=
EXTT9=
PLAYORDER=
